<?xml version="1.0" encoding="utf-8"?>
<!-- Generator: Adobe Illustrator 17.0.2, SVG Export Plug-In . SVG Version: 6.00 Build 0)  -->
<!DOCTYPE svg PUBLIC "-//W3C//DTD SVG 1.1//EN" "http://www.w3.org/Graphics/SVG/1.1/DTD/svg11.dtd">
<svg version="1.1" id="Layer_1" xmlns="http://www.w3.org/2000/svg" xmlns:xlink="http://www.w3.org/1999/xlink" x="0px" y="0px"
	 width="32px" height="32px" viewBox="0 0 32 32" enable-background="new 0 0 32 32" xml:space="preserve">
<path fill="#1C1C1C" d="M27.657,5.343c-3.124-3.124-8.19-3.124-11.314,0L16,5.715l-0.343-0.372c-3.124-3.124-8.19-3.124-11.314,0
	s-3.124,8.19,0,11.314L5.121,17.5l0.675,0.731l9.518,10.312L16,29.285l0.686-0.743l9.518-10.312l0.675-0.731l0.778-0.843
	C30.781,13.533,30.781,8.467,27.657,5.343z M27.112,15.788l-0.908,0.982L25.528,17.5L16,27.801L6.472,17.5l-0.676-0.731
	l-0.908-0.982c-2.644-2.644-2.644-6.931,0-9.575l0.324-0.324c2.644-2.644,6.931-2.644,9.575,0l0.527,0.569L16,7.199l0.686-0.741
	l0.527-0.569c2.644-2.644,6.931-2.644,9.575,0l0.324,0.324C29.756,8.856,29.756,13.144,27.112,15.788z"/>
</svg>
